<?xml version="1.0" encoding="utf-8"?>
<!-- Generator: Adobe Illustrator 23.1.0, SVG Export Plug-In . SVG Version: 6.00 Build 0)  -->
<svg version="1.1" id="Capa_1" xmlns="http://www.w3.org/2000/svg" xmlns:xlink="http://www.w3.org/1999/xlink" x="0px" y="0px"
	 viewBox="0 0 477.9 477.9" enable-background="new 0 0 477.9 477.9" xml:space="preserve">
	<g>
		<g>
			<path d="M187.7,0H51.2c-9.4,0-17.1,7.6-17.1,17.1v443.7c0,9.4,7.6,17.1,17.1,17.1h136.5c9.4,0,17.1-7.6,17.1-17.1V17.1
				C204.8,7.6,197.2,0,187.7,0z"/>
		</g>
	</g>
	<g>
		<g>
			<path d="M426.7,0H290.1c-9.4,0-17.1,7.6-17.1,17.1v443.7c0,9.4,7.6,17.1,17.1,17.1h136.5c9.4,0,17.1-7.6,17.1-17.1V17.1
				C443.7,7.6,436.1,0,426.7,0z"/>
		</g>
	</g>
</svg>
